<svg xmlns="http://www.w3.org/2000/svg" xmlns:xlink="http://www.w3.org/1999/xlink" enable-background="new 0 0 91 91" height="53" version="1.1" width="44" xml:space="preserve"><rect id="backgroundrect" width="100%" height="100%" x="0" y="0" fill="none" stroke="none" class="" style=""/><g class="currentLayer" style=""><title>Layer 1</title><g id="svg_1" class="selected" fill-opacity="1" fill="#dbdbdb"><path d="M37.04499934387207,3.399999816894532 v-3.4 H7.403999343872069 v3.4 h13.121 v0.8240000000000001 c-11.449,0.809 -20.525,10.359 -20.525,22.01 c0,8.563 4.906,15.988 12.049,19.652 l-4.99,4.99 l2.404,2.404 l5.98,-5.98 c2.1,0.6640000000000001 4.332,1.027 6.648,1.027 c2.391,0 4.688000000000001,-0.3950000000000001 6.844,-1.1 l6.053,6.053 l2.404,-2.404 l-5.076,-5.076 c7.045,-3.6950000000000003 11.867,-11.074 11.867,-19.566 c0,-11.563 -8.934,-21.061 -20.258,-21.998 v-0.8360000000000001 H37.04499934387207 zM40.78499934387207,26.23399981689453 c0,10.309 -8.387,18.693 -18.693,18.693 c-10.305,0 -18.691,-8.385 -18.691,-18.693 c0,-10.307 8.387,-18.689 18.691,-18.689 C32.39899934387207,7.544999816894531 40.78499934387207,15.927999816894534 40.78499934387207,26.23399981689453 z" id="svg_2" fill="#dbdbdb"/><path d="M20.458999343872073,11.77099981689453 v14.463 h0.008000000000000002 c0,0.44100000000000006 0.17200000000000001,0.8830000000000001 0.49400000000000005,1.205 c0.30500000000000005,0.30700000000000005 0.7480000000000001,0.49200000000000005 1.207,0.49200000000000005 c0.44100000000000006,0 0.8850000000000001,-0.18600000000000003 1.189,-0.49200000000000005 c0.32400000000000007,-0.32200000000000006 0.51,-0.7660000000000001 0.51,-1.207 c0,-0.014000000000000002 -0.008000000000000002,-0.027000000000000007 -0.008000000000000002,-0.03900000000000001 V11.77099981689453 H20.458999343872073 z" id="svg_3" fill="#dbdbdb"/><rect height="3.3980000019073486" width="3.382999897003174" x="6.607999801635742" y="24.577999114990234" id="svg_4" fill="#dbdbdb"/><rect height="3.3980000019073486" width="3.378999948501587" x="34.19700050354004" y="24.577999114990234" id="svg_5" fill="#dbdbdb"/><rect height="3.3989999294281006" transform="matrix(0.7376,0.6752,-0.6752,0.7376,33.6588,-14.0932) " width="3.38100004196167" x="3.224727531220502" y="35.85662846758068" id="svg_6" fill="#dbdbdb"/><rect height="3.401000022888183" transform="matrix(-0.7379,-0.6749,0.6749,-0.7379,59.1154,132.7075) " width="3.3800001144409175" x="83.6832542363397" y="51.893130921581616" id="svg_7" fill="#dbdbdb"/><rect height="3.3980000019073486" transform="matrix(-0.0017,-1,1,-0.0017,-14.1227,104.6303) " width="3.377000093460083" x="62.84710557295247" y="34.660932841467414" id="svg_8" fill="#dbdbdb"/><rect height="3.380000114440918" transform="matrix(-0.738,-0.6748,0.6748,-0.738,24.6639,121.0744) " width="3.4010000228881836" x="64.18424489073374" y="52.781382973776346" id="svg_9" fill="#dbdbdb"/><rect height="3.380000114440918" transform="matrix(0.7382,0.6745,-0.6745,0.7382,38.1222,-27.467) " width="3.4019999504089355" x="22.70165618990157" y="34.963974817123415" id="svg_10" fill="#dbdbdb"/></g></g></svg>