<svg xmlns="http://www.w3.org/2000/svg" xmlns:xlink="http://www.w3.org/1999/xlink" enable-background="new 0 0 91 91" height="55" version="1.1" width="46" xml:space="preserve" style=""><rect id="backgroundrect" width="100%" height="100%" x="0" y="0" fill="none" stroke="none" class="" style=""/><g class="currentLayer" style=""><title>Layer 1</title><g id="svg_1" class="selected" fill-opacity="1" fill="#dbdbdb"><path d="M1.6989997863769517,54.68099896240234 h42.783 c0.9390000000000001,0 1.6990000000000003,-0.7620000000000001 1.6990000000000003,-1.701 V12.46499896240234 V1.6989989624023423 c0,-0.9380000000000001 -0.7600000000000001,-1.6990000000000003 -1.6990000000000003,-1.6990000000000003 H1.6989997863769517 c-0.9390000000000001,0 -1.6990000000000003,0.7610000000000001 -1.6990000000000003,1.6990000000000003 v10.766 v40.516 C-2.1362304636340923e-7,53.919998962402346 0.7599997863769516,54.68099896240234 1.6989997863769517,54.68099896240234 zM3.4009997863769534,3.398998962402345 h39.381 v7.366 H3.4009997863769534 V3.398998962402345 zM3.4009997863769534,14.164998962402343 h39.381 v37.116 H3.4009997863769534 V14.164998962402343 z" id="svg_2" fill="#dbdbdb"/><polygon points="15.582000732421875,18.414997100830078 12.181999206542969,18.414997100830078 12.181999206542969,22.381000518798828 8.21500015258789,22.381000518798828 8.21500015258789,25.78099822998047 12.181999206542969,25.78099822998047 12.181999206542969,29.747997283935547 15.582000732421875,29.747997283935547 15.582000732421875,25.78099822998047 19.548999786376953,25.78099822998047 19.548999786376953,22.381000518798828 15.582000732421875,22.381000518798828 " id="svg_3" fill="#dbdbdb"/><polygon points="16.687999725341797,34.1719970703125 13.882999420166016,36.97599792480469 11.077999114990234,34.1719970703125 8.673999786376953,36.57600021362305 11.479000091552734,39.38100051879883 8.673999786376953,42.18499755859375 11.077999114990234,44.589996337890625 13.882999420166016,41.78499984741211 16.687999725341797,44.589996337890625 19.091999053955078,42.18499755859375 16.286998748779297,39.38100051879883 19.091999053955078,36.57600021362305 " id="svg_4" fill="#dbdbdb"/><rect height="3.4000000953674316" width="11.333999633789062" x="26.631000518798828" y="22.381000518798828" id="svg_5" fill="#dbdbdb"/><rect height="3.3989999294281006" width="11.333999633789062" x="26.631000518798828" y="37.680999755859375" id="svg_6" fill="#dbdbdb"/><rect height="3.4000000953674316" width="3.5409998893737793" x="30.527999877929688" y="33.47800064086914" id="svg_7" fill="#dbdbdb"/><rect height="3.3989999294281006" width="3.5409998893737793" x="30.527999877929688" y="41.87199783325195" id="svg_8" fill="#dbdbdb"/></g></g></svg>