<svg xmlns="http://www.w3.org/2000/svg" xmlns:xlink="http://www.w3.org/1999/xlink" enable-background="new 0 0 91 91" height="52" version="1.1" width="54" xml:space="preserve"><rect id="backgroundrect" width="100%" height="100%" x="0" y="0" fill="none" stroke="none" class="" style=""/><g class="currentLayer" style=""><title>Layer 1</title><g id="svg_1" class="selected" fill="#dbdbdb" fill-opacity="1"><path d="M26.909000991821287,16.34000180053711 c-5.443,0 -9.871,4.428 -9.871,9.871 s4.428,9.871 9.871,9.871 s9.871,-4.428 9.871,-9.871 S32.35300099182129,16.34000180053711 26.909000991821287,16.34000180053711 zM26.909000991821287,32.68200180053711 c-3.568,0 -6.471,-2.904 -6.471,-6.471 c0,-3.568 2.902,-6.471 6.471,-6.471 c3.566,0 6.471,2.902 6.471,6.471 C33.38000099182129,29.777001800537107 30.476000991821287,32.68200180053711 26.909000991821287,32.68200180053711 z" id="svg_2" fill="#dbdbdb" fill-opacity="1"/><path d="M45.39200099182129,5.8130018005371085 l-6.975,4.029 c-0.971,-0.6860000000000002 -2.004,-1.2810000000000001 -3.086,-1.7810000000000001 v-8.061 H18.48700099182129 v8.061 c-1.008,0.467 -1.979,1.021 -2.898,1.6540000000000001 l-6.936,-4.111 l-8.586,14.488 l6.936,4.109 c-0.07800000000000001,0.7090000000000001 -0.11500000000000002,1.373 -0.11500000000000002,2.01 c0,0.5740000000000001 0.029000000000000005,1.158 0.09200000000000003,1.7850000000000001 l-6.98,4.031 l8.422,14.584 l6.979,-4.031 c0.973,0.6860000000000002 2.004,1.2810000000000001 3.088,1.7810000000000001 v8.061 h16.844 v-8.061 c1.008,-0.467 1.9769999999999999,-1.021 2.896,-1.6540000000000001 l6.936,4.111 l8.586,-14.488 l-6.934,-4.109 c0.07800000000000001,-0.7050000000000001 0.11500000000000002,-1.371 0.11500000000000002,-2.01 c0,-0.5760000000000001 -0.029000000000000005,-1.158 -0.09200000000000003,-1.7850000000000001 l6.98,-4.031 L45.39200099182129,5.8130018005371085 zM43.15900099182129,22.625001800537106 l0.17,1.143 c0.137,0.928 0.203,1.703 0.203,2.443 c0,0.797 -0.07600000000000001,1.6560000000000001 -0.232,2.6310000000000002 l-0.18200000000000002,1.141 l5.973,3.539 l-5.119,8.639 l-5.973,-3.541 l-0.914,0.7130000000000001 c-1.244,0.9690000000000001 -2.617,1.754 -4.078,2.33 l-1.076,0.42400000000000004 v6.936 H21.88600099182129 v-6.934 l-1.074,-0.42600000000000005 c-1.533,-0.6050000000000001 -2.955,-1.428 -4.23,-2.443 l-0.906,-0.7230000000000001 l-6.01,3.471 l-5.021,-8.695 l6.016,-3.475 l-0.17,-1.143 c-0.137,-0.928 -0.203,-1.703 -0.203,-2.443 c0,-0.801 0.07400000000000001,-1.6390000000000002 0.232,-2.6350000000000002 l0.17800000000000002,-1.139 l-5.971,-3.537 l5.119,-8.639 l5.973,3.543 l0.914,-0.7130000000000001 c1.248,-0.971 2.621,-1.7560000000000002 4.08,-2.332 l1.074,-0.42400000000000004 v-6.936 h10.045 v6.934 l1.076,0.42600000000000005 c1.529,0.6050000000000001 2.9530000000000003,1.428 4.229,2.443 l0.908,0.7230000000000001 l6.008,-3.469 l5.023,8.693 L43.15900099182129,22.625001800537106 z" id="svg_3" fill="#dbdbdb" fill-opacity="1"/></g></g></svg>