<svg xmlns="http://www.w3.org/2000/svg" xmlns:xlink="http://www.w3.org/1999/xlink" enable-background="new 0 0 91 91" height="56" version="1.1" width="46" xml:space="preserve" style=""><rect id="backgroundrect" width="100%" height="100%" x="0" y="0" fill="none" stroke="none" class="" style=""/><g class="currentLayer" style=""><title>Layer 1</title><g id="svg_1" class="selected" fill-opacity="1" fill="#dbdbdb"><rect height="3.3989999294281006" width="29.597999572753906" x="8.300003051757812" y="33.98200225830078" id="svg_2" fill="#dbdbdb"/><rect height="3.4000000953674316" width="29.597999572753906" x="8.300003051757812" y="24.6510009765625" id="svg_3" fill="#dbdbdb"/><rect height="3.3989999294281006" width="5.1020002365112305" x="8.300003051757812" y="43.31500244140625" id="svg_4" fill="#dbdbdb"/><rect height="3.3989999294281006" width="5.36299991607666" x="16.081003189086914" y="43.31500244140625" id="svg_5" fill="#dbdbdb"/><rect height="3.3989999294281006" width="5.099999904632568" x="24.12400245666504" y="43.31500244140625" id="svg_6" fill="#dbdbdb"/><path d="M1.698002670288087,56.120000976562494 H39.68000267028808 c3.5940000000000003,0 6.52,-2.924 6.52,-6.518 V10.2000009765625 c0,-0.9390000000000001 -0.7600000000000001,-1.7000000000000002 -1.6990000000000003,-1.7000000000000002 H36.61000267028808 v-5.1 h-7.193 c-1.439,-2.121 -3.807,-3.4 -6.406,-3.4 c-2.598,0 -4.965,1.279 -6.404,3.4 h-7.195 v5.1 h-7.713 c-0.9390000000000001,0 -1.6990000000000003,0.7610000000000001 -1.6990000000000003,1.7000000000000002 v44.22 C-0.000997329711914574,55.3590009765625 0.759002670288087,56.120000976562494 1.698002670288087,56.120000976562494 zM12.811002670288083,6.800000976562501 h5.824 l0.467,-0.9460000000000001 c0.7500000000000001,-1.513 2.246,-2.454 3.908,-2.454 s3.16,0.9400000000000001 3.908,2.454 l0.46900000000000003,0.9460000000000001 h5.824 v6.8 h-20.4 V6.800000976562501 zM3.397002670288085,11.9010009765625 h6.014 v5.1 H36.61000267028808 v-5.1 H42.80000267028808 v37.702 c0,1.719 -1.3980000000000001,3.118 -3.119,3.118 H3.397002670288085 V11.9010009765625 z" id="svg_7" fill="#dbdbdb"/></g></g></svg>